<svg width="342" height="166" viewBox="0 0 342 166" fill="none" xmlns="http://www.w3.org/2000/svg">
<path d="M219.491 161.832C240.17 161.488 260.85 161.574 281.442 162.004C281.442 147.28 281.703 132.556 281.964 118.004C275.534 117.401 269.017 117.315 262.761 118.004C262.587 111.115 262.587 104.312 262.935 97.3378C255.636 97.5961 248.338 97.5961 241.3 97.0795C240.865 92.5158 240.778 87.866 241.213 83.3884C234.175 82.7856 227.05 82.7856 219.838 82.7856C219.404 109.307 219.404 135.828 219.491 161.832Z" fill="white"/>
<path d="M281.446 162.435C258.768 162.005 238.523 161.919 219.495 162.263C219.408 162.263 219.234 162.263 219.147 162.177C219.06 162.091 219.06 162.005 219.06 161.919C218.887 132.901 219.06 107.068 219.408 82.8722C219.408 82.6139 219.582 82.4417 219.842 82.4417C227.054 82.4417 234.179 82.4417 241.217 83.0444C241.304 83.0444 241.478 83.1305 241.478 83.2166C241.564 83.3027 241.564 83.3888 241.564 83.561C241.13 87.4359 241.13 91.7412 241.564 96.8216C247.647 97.2521 254.598 97.3382 262.765 97.0799C262.852 97.0799 263.026 97.0799 263.113 97.166C263.2 97.2521 263.2 97.3382 263.2 97.5104C262.939 103.71 262.852 110.168 263.026 117.746C268.847 117.143 275.19 117.143 281.881 117.746C282.141 117.746 282.228 117.918 282.228 118.176C282.141 121.707 282.141 125.237 282.054 128.767C281.881 139.703 281.707 150.983 281.707 162.177C281.707 162.263 281.62 162.435 281.62 162.435C281.707 162.349 281.62 162.435 281.446 162.435ZM245.561 161.23C256.77 161.23 268.587 161.316 281.099 161.574C281.099 150.553 281.272 139.359 281.446 128.595C281.533 125.237 281.533 121.793 281.62 118.435C274.93 117.832 268.674 117.832 262.852 118.521C262.765 118.521 262.591 118.521 262.505 118.435C262.418 118.348 262.331 118.262 262.331 118.09C262.157 110.513 262.157 104.055 262.418 97.8549C254.25 98.1132 247.299 98.0271 241.217 97.5104C241.043 97.5104 240.869 97.3382 240.869 97.166C240.435 92.1718 240.435 87.7803 240.782 83.8194C234.005 83.3027 227.228 83.3027 220.364 83.3027C219.929 107.241 219.842 132.814 220.016 161.488C228.184 161.23 236.699 161.23 245.561 161.23Z" fill="#A3AEBB"/>
<path d="M237.907 117.746C235.3 117.746 232.259 117.66 229.739 117.574C229.739 115.077 229.739 112.408 229.739 109.824C232.433 109.652 235.126 109.652 237.994 109.824C237.994 112.408 237.994 114.905 237.907 117.746Z" fill="#B8D4F7"/>
<path d="M237.904 118.177C236.6 118.177 235.21 118.177 233.82 118.091C232.43 118.091 231.04 118.005 229.736 118.005C229.476 118.005 229.302 117.832 229.302 117.574V116.885C229.302 114.56 229.302 112.149 229.302 109.824C229.302 109.566 229.476 109.394 229.736 109.394C232.43 109.222 235.123 109.222 237.991 109.394C238.251 109.394 238.425 109.566 238.425 109.824C238.512 112.322 238.425 114.819 238.338 117.746C238.251 117.919 238.077 118.177 237.904 118.177ZM230.084 117.144C231.3 117.144 232.517 117.144 233.733 117.23C234.95 117.23 236.253 117.316 237.382 117.316C237.469 114.733 237.469 112.494 237.469 110.255C234.863 110.169 232.43 110.169 230.084 110.255C230.084 112.494 230.084 114.733 230.084 116.971V117.144Z" fill="#A3AEBB"/>
<path d="M255.03 117.746C252.423 117.746 249.382 117.66 246.862 117.574C246.862 115.077 246.862 112.407 246.862 109.824C249.556 109.652 252.249 109.652 255.117 109.824C255.204 112.407 255.117 114.905 255.03 117.746Z" fill="#B8D4F7"/>
<path d="M255.027 118.177C253.723 118.177 252.333 118.177 250.943 118.091C249.553 118.091 248.163 118.005 246.859 118.005C246.599 118.005 246.425 117.832 246.425 117.574V116.885C246.425 114.56 246.425 112.149 246.425 109.824C246.425 109.566 246.599 109.394 246.859 109.394C249.553 109.222 252.246 109.222 255.114 109.394C255.374 109.394 255.548 109.566 255.548 109.824C255.635 112.322 255.548 114.819 255.461 117.746C255.461 117.919 255.287 118.177 255.027 118.177ZM247.294 117.144C248.51 117.144 249.727 117.144 250.943 117.23C252.159 117.23 253.463 117.316 254.592 117.316C254.679 114.733 254.679 112.494 254.679 110.255C252.073 110.169 249.64 110.169 247.294 110.255C247.294 112.494 247.294 114.733 247.294 116.971V117.144Z" fill="#A3AEBB"/>
<path d="M237.636 134.278C235.03 134.278 231.989 134.192 229.469 134.106C229.469 131.609 229.469 128.939 229.469 126.356C232.162 126.184 234.856 126.184 237.723 126.356C237.81 128.939 237.723 131.523 237.636 134.278Z" fill="#B8D4F7"/>
<path d="M237.634 134.709C236.331 134.709 234.941 134.709 233.55 134.623C232.16 134.623 230.77 134.537 229.467 134.537C229.206 134.537 229.032 134.364 229.032 134.106V133.417C229.032 131.092 229.032 128.681 229.032 126.356C229.032 126.098 229.206 125.926 229.467 125.926C232.16 125.754 234.854 125.754 237.721 125.926C237.982 125.926 238.156 126.098 238.156 126.356C238.242 128.853 238.156 131.351 238.069 134.278C238.069 134.537 237.895 134.709 237.634 134.709ZM229.814 133.762C231.031 133.762 232.247 133.762 233.55 133.848C234.767 133.848 236.07 133.934 237.2 133.934C237.287 131.351 237.287 129.112 237.287 126.873C234.68 126.787 232.247 126.787 229.901 126.873C229.901 129.112 229.901 131.351 229.901 133.589L229.814 133.762Z" fill="#A3AEBB"/>
<path d="M254.747 134.278C252.14 134.278 249.099 134.192 246.579 134.106C246.579 131.609 246.579 128.94 246.579 126.356C249.273 126.184 251.966 126.184 254.834 126.356C254.92 128.94 254.92 131.523 254.747 134.278Z" fill="#B8D4F7"/>
<path d="M254.745 134.709C253.441 134.709 252.051 134.709 250.661 134.623C249.271 134.623 247.88 134.537 246.577 134.537C246.316 134.537 246.143 134.365 246.143 134.106V133.417C246.143 131.093 246.143 128.682 246.143 126.357C246.143 126.098 246.316 125.926 246.577 125.926C249.271 125.754 251.964 125.754 254.831 125.926C255.092 125.926 255.266 126.098 255.266 126.357C255.353 128.854 255.266 131.351 255.179 134.279C255.179 134.537 255.005 134.709 254.745 134.709ZM247.011 133.762C248.228 133.762 249.444 133.762 250.748 133.848C251.964 133.848 253.267 133.934 254.397 133.934C254.484 131.351 254.484 129.112 254.484 126.873C251.877 126.787 249.444 126.787 247.098 126.873C247.098 129.112 247.098 131.351 247.098 133.504L247.011 133.762Z" fill="#A3AEBB"/>
<path d="M237.636 150.897C235.03 150.897 231.989 150.811 229.469 150.725C229.469 148.228 229.469 145.559 229.469 142.976C232.162 142.803 234.856 142.803 237.723 142.976C237.81 145.559 237.723 148.056 237.636 150.897Z" fill="#B8D4F7"/>
<path d="M237.634 151.328C236.331 151.328 234.941 151.328 233.55 151.242C232.16 151.242 230.77 151.156 229.467 151.156C229.206 151.156 229.032 150.984 229.032 150.725V150.037C229.032 147.712 229.032 145.301 229.032 142.976C229.032 142.717 229.206 142.545 229.467 142.545C232.16 142.373 234.854 142.373 237.721 142.545C237.982 142.545 238.156 142.717 238.156 142.976C238.242 145.473 238.156 147.97 238.069 150.898C238.069 151.156 237.895 151.328 237.634 151.328ZM229.814 150.381C231.031 150.381 232.247 150.381 233.464 150.467C234.68 150.467 235.983 150.553 237.113 150.553C237.2 147.97 237.2 145.731 237.2 143.492C234.593 143.406 232.16 143.406 229.814 143.492C229.814 145.731 229.814 147.97 229.814 150.209V150.381Z" fill="#A3AEBB"/>
<path d="M254.747 150.896C252.14 150.896 249.099 150.81 246.579 150.724C246.579 148.227 246.579 145.558 246.579 142.974C249.273 142.802 251.966 142.802 254.834 142.974C254.92 145.558 254.92 148.055 254.747 150.896Z" fill="#B8D4F7"/>
<path d="M254.745 151.327C253.441 151.327 252.051 151.327 250.661 151.241C249.271 151.241 247.88 151.155 246.577 151.155C246.316 151.155 246.143 150.982 246.143 150.724V150.035C246.143 147.71 246.143 145.299 246.143 142.974C246.143 142.716 246.316 142.544 246.577 142.544C249.271 142.372 251.964 142.372 254.831 142.544C255.092 142.544 255.266 142.716 255.266 142.974C255.353 145.472 255.266 147.969 255.179 150.896C255.179 151.155 255.005 151.327 254.745 151.327ZM247.011 150.38C248.228 150.38 249.444 150.38 250.661 150.466C251.877 150.466 253.181 150.552 254.31 150.552C254.397 147.969 254.397 145.73 254.397 143.491C251.79 143.405 249.357 143.405 247.011 143.491C247.011 145.73 247.011 147.969 247.011 150.121V150.38Z" fill="#A3AEBB"/>
<path d="M237.665 112.665L229.845 112.579C229.758 112.579 229.671 112.493 229.671 112.407C229.671 112.321 229.758 112.235 229.845 112.235L237.665 112.321C237.752 112.321 237.838 112.407 237.838 112.493C237.838 112.579 237.752 112.665 237.665 112.665Z" fill="#A3AEBB"/>
<path d="M255.025 112.665C253.113 112.579 250.941 112.579 248.769 112.579C248.074 112.579 247.466 112.579 246.77 112.579C246.684 112.579 246.597 112.493 246.597 112.407C246.597 112.321 246.684 112.235 246.77 112.235C247.379 112.235 248.074 112.235 248.769 112.235C250.941 112.235 253.2 112.235 255.025 112.321C255.112 112.321 255.199 112.407 255.199 112.493C255.199 112.579 255.112 112.665 255.025 112.665Z" fill="#A3AEBB"/>
<path d="M237.378 128.941C236.248 128.941 234.945 128.941 233.641 128.941C232.338 128.941 230.948 128.941 229.731 128.941C229.645 128.941 229.558 128.855 229.558 128.769C229.558 128.683 229.645 128.596 229.731 128.596C230.948 128.596 232.251 128.596 233.641 128.596C234.945 128.596 236.248 128.596 237.378 128.596C237.464 128.596 237.551 128.683 237.551 128.769C237.551 128.855 237.464 128.941 237.378 128.941Z" fill="#A3AEBB"/>
<path d="M254.754 128.854C252.93 128.768 249.976 128.768 246.848 128.768C246.761 128.768 246.674 128.681 246.674 128.595C246.674 128.509 246.761 128.423 246.848 128.423C248.325 128.423 252.148 128.423 254.754 128.509C254.841 128.509 254.928 128.595 254.928 128.681C254.841 128.854 254.841 128.854 254.754 128.854Z" fill="#A3AEBB"/>
<path d="M233.82 145.386C232.343 145.386 230.866 145.386 229.476 145.3C229.389 145.3 229.302 145.214 229.302 145.128C229.302 145.042 229.389 144.956 229.476 144.956C231.474 145.042 233.559 145.042 235.558 145.042C236.166 145.042 236.687 145.042 237.295 145.042C237.382 145.042 237.469 145.128 237.469 145.214C237.469 145.3 237.382 145.386 237.295 145.386C236.687 145.386 236.166 145.386 235.558 145.386C235.036 145.386 234.428 145.386 233.82 145.386Z" fill="#A3AEBB"/>
<path d="M246.77 145.301C246.684 145.301 246.597 145.215 246.597 145.129C246.597 145.042 246.684 144.956 246.77 144.956C249.377 144.87 252.071 144.87 254.764 144.87C254.851 144.87 254.938 144.956 254.938 145.042C254.938 145.129 254.851 145.215 254.764 145.215C252.071 145.215 249.377 145.215 246.77 145.301Z" fill="#A3AEBB"/>
<path d="M272.048 134.278C269.442 134.278 266.401 134.192 263.881 134.106C263.881 131.609 263.881 128.939 263.881 126.356C266.574 126.184 269.268 126.184 272.135 126.356C272.135 128.939 272.135 131.523 272.048 134.278Z" fill="#B8D4F7"/>
<path d="M272.046 134.709C270.743 134.709 269.353 134.709 267.963 134.623C266.572 134.623 265.182 134.536 263.879 134.536C263.618 134.536 263.444 134.364 263.444 134.106V133.417C263.444 131.092 263.444 128.681 263.444 126.356C263.444 126.098 263.618 125.926 263.879 125.926C266.572 125.753 269.266 125.753 272.133 125.926C272.394 125.926 272.568 126.098 272.568 126.356C272.655 128.853 272.568 131.35 272.481 134.278C272.394 134.536 272.22 134.709 272.046 134.709ZM264.226 133.761C265.443 133.761 266.659 133.761 267.963 133.848C269.179 133.848 270.482 133.934 271.612 133.934C271.699 131.35 271.699 129.112 271.699 126.873C269.092 126.787 266.659 126.787 264.313 126.873C264.313 129.112 264.313 131.35 264.313 133.589L264.226 133.761Z" fill="#A3AEBB"/>
<path d="M272.048 150.897C269.442 150.897 266.401 150.811 263.881 150.725C263.881 148.228 263.881 145.559 263.881 142.975C266.574 142.803 269.268 142.803 272.135 142.975C272.135 145.559 272.135 148.056 272.048 150.897Z" fill="#B8D4F7"/>
<path d="M272.046 151.328C270.743 151.328 269.353 151.328 267.963 151.242C266.572 151.242 265.182 151.156 263.879 151.156C263.618 151.156 263.444 150.984 263.444 150.725V150.037C263.444 147.712 263.444 145.301 263.444 142.976C263.444 142.717 263.618 142.545 263.879 142.545C266.572 142.373 269.266 142.373 272.133 142.545C272.394 142.545 272.568 142.717 272.568 142.976C272.655 145.473 272.568 147.97 272.481 150.898C272.394 151.156 272.22 151.328 272.046 151.328ZM264.226 150.381C265.443 150.381 266.659 150.381 267.876 150.467C269.092 150.467 270.395 150.553 271.525 150.553C271.612 147.97 271.612 145.731 271.612 143.492C269.005 143.406 266.572 143.406 264.226 143.492C264.226 145.731 264.226 147.97 264.226 150.209V150.381Z" fill="#A3AEBB"/>
<path d="M271.964 128.854C270.14 128.768 267.186 128.768 264.058 128.768C263.971 128.768 263.884 128.682 263.884 128.596C263.884 128.51 263.971 128.423 264.058 128.423C265.535 128.423 269.358 128.423 271.964 128.51C272.051 128.51 272.138 128.596 272.138 128.682C272.051 128.854 272.051 128.854 271.964 128.854Z" fill="#A3AEBB"/>
<path d="M263.963 145.301C263.876 145.301 263.789 145.215 263.789 145.129C263.789 145.043 263.876 144.956 263.963 144.956C266.569 144.87 269.263 144.87 271.957 144.87C272.043 144.87 272.13 144.956 272.13 145.043C272.13 145.129 272.043 145.215 271.957 145.215C269.263 145.215 266.656 145.215 263.963 145.301Z" fill="#A3AEBB"/>
<path d="M217.669 163.211C239.912 163.211 260.852 163.039 282.227 163.211C282.835 163.211 282.835 158.475 282.835 158.475C275.884 158.991 236.002 157.872 217.582 158.733C217.495 160.025 217.408 161.575 217.669 163.211Z" fill="white"/>
<path d="M217.666 163.555C217.492 163.555 217.318 163.383 217.231 163.211C216.971 161.402 217.058 159.766 217.145 158.561C217.145 158.389 217.318 158.216 217.579 158.13C227.919 157.7 245.383 157.872 259.372 157.958C270.32 158.044 279.791 158.13 282.832 157.872C282.919 157.872 283.093 157.872 283.18 157.958C283.267 158.044 283.353 158.13 283.353 158.303C283.353 163.469 282.745 163.469 282.398 163.469C268.322 163.383 254.593 163.383 240.17 163.469C232.784 163.555 225.225 163.555 217.666 163.555ZM217.927 159.077C217.84 160.111 217.84 161.402 218.013 162.78C225.486 162.78 232.871 162.78 239.996 162.78C254.42 162.78 267.974 162.694 282.05 162.78C282.224 162.263 282.311 160.541 282.398 158.905C278.922 159.077 269.799 158.991 259.372 158.905C245.557 158.733 228.353 158.561 217.927 159.077Z" fill="#A3AEBB"/>
<path d="M222.446 92.2581C222.359 92.2581 222.272 92.172 222.272 92.0859L222.533 85.2834C222.533 85.1973 222.62 85.1112 222.707 85.1112C222.794 85.1112 222.881 85.1973 222.881 85.2834L222.62 92.0859C222.533 92.172 222.533 92.2581 222.446 92.2581Z" fill="#A3AEBB"/>
<path d="M224.787 88.8141C224.7 88.8141 224.613 88.728 224.613 88.6419L224.439 85.4559C224.439 85.3698 224.526 85.2837 224.613 85.2837C224.7 85.2837 224.787 85.3698 224.787 85.4559L224.961 88.6419C224.961 88.8141 224.874 88.8141 224.787 88.8141Z" fill="#A3AEBB"/>
<path d="M226.787 87.9535C226.7 87.9535 226.613 87.8674 226.613 87.7812L226.439 85.5425C226.439 85.4564 226.526 85.3702 226.613 85.3702C226.7 85.3702 226.787 85.4564 226.787 85.5425L226.961 87.7812C226.961 87.8674 226.874 87.9535 226.787 87.9535Z" fill="#A3AEBB"/>
<path d="M260.338 104.226C260.251 104.226 260.164 104.14 260.164 104.054L260.338 99.3183C260.338 99.2322 260.425 99.1461 260.512 99.1461C260.599 99.1461 260.685 99.2322 260.685 99.3183L260.512 104.054C260.425 104.14 260.338 104.226 260.338 104.226Z" fill="#A3AEBB"/>
<path d="M258.599 101.902C258.512 101.902 258.425 101.816 258.425 101.73V99.3189C258.425 99.2328 258.512 99.1467 258.599 99.1467C258.685 99.1467 258.772 99.2328 258.772 99.3189V101.73C258.772 101.816 258.685 101.902 258.599 101.902Z" fill="#A3AEBB"/>
<path d="M256.503 101.214C256.416 101.214 256.329 101.128 256.329 101.128C256.242 100.611 256.242 100.008 256.329 99.4917C256.329 99.4056 256.416 99.4056 256.503 99.4056C256.59 99.4056 256.676 99.4917 256.589 99.5779C256.503 100.094 256.503 100.611 256.589 101.128C256.676 101.128 256.59 101.128 256.503 101.214Z" fill="#A3AEBB"/>
<path d="M279.788 125.668C279.701 125.668 279.614 125.582 279.614 125.496C279.614 123.601 279.701 121.707 279.875 119.813C279.875 119.726 279.962 119.64 280.049 119.64C280.136 119.64 280.222 119.726 280.222 119.813C280.049 121.707 279.962 123.601 279.962 125.496C279.962 125.668 279.875 125.668 279.788 125.668Z" fill="#A3AEBB"/>
<path d="M278.229 122.568C278.143 122.568 278.056 122.482 278.056 122.396L278.143 119.898C278.143 119.812 278.229 119.726 278.316 119.726C278.403 119.726 278.49 119.812 278.49 119.898L278.403 122.396C278.403 122.482 278.316 122.568 278.229 122.568Z" fill="#A3AEBB"/>
<path d="M155.4 124.131L154.396 163.463H222.848L223.629 124.241L155.4 124.131Z" fill="#FAFBFF"/>
<path d="M222.859 164.015H154.407C154.295 164.015 154.072 163.905 154.072 163.905C153.961 163.794 153.961 163.684 153.961 163.463L154.964 124.131C154.964 123.799 155.187 123.578 155.522 123.578L223.751 123.689C223.862 123.689 224.085 123.799 224.085 123.799C224.197 123.91 224.197 124.02 224.197 124.241L223.416 163.463C223.416 163.684 223.193 164.015 222.859 164.015ZM154.964 162.91H222.301L223.082 124.794L155.968 124.683L154.964 162.91Z" fill="#A3AEBB"/>
<path d="M183.643 163.462C164.133 163.462 143.731 163.794 124.222 163.573C124.222 144.238 123.999 124.351 122.884 102.807C140.721 102.365 162.795 102.144 185.092 101.923C183.866 123.468 182.64 149.21 183.643 163.462Z" fill="white"/>
<path d="M134.92 164.125C131.353 164.125 127.785 164.125 124.217 164.125C123.883 164.125 123.66 163.904 123.66 163.573C123.66 146.448 123.549 125.788 122.322 102.807C122.322 102.697 122.322 102.476 122.434 102.365C122.545 102.255 122.657 102.144 122.768 102.144C139.491 101.703 159.447 101.592 180.629 101.371H184.977C185.088 101.371 185.311 101.482 185.423 101.592C185.534 101.703 185.534 101.813 185.534 102.034C184.419 123.026 183.082 149.1 184.196 163.462C184.196 163.573 184.196 163.794 184.085 163.904C183.973 164.015 183.862 164.015 183.639 164.125C175.278 164.125 166.693 164.125 158.22 164.236C150.639 164.125 142.724 164.125 134.92 164.125ZM124.775 163.021C135.812 163.131 147.183 163.021 158.332 162.91C166.47 162.91 174.943 162.8 183.082 162.8C182.078 148.437 183.416 123.026 184.419 102.365H180.629C159.67 102.586 139.937 102.697 123.326 103.139C124.552 125.898 124.775 146.117 124.775 163.021Z" fill="#A3AEBB"/>
<path d="M194.43 106.564C166.001 106.564 140.471 107.006 114.718 107.006C127.204 93.7483 140.694 78.8331 153.403 65.6857C166.67 78.6122 179.491 93.6378 194.43 106.564Z" fill="white"/>
<path d="M114.722 107.669C114.499 107.669 114.276 107.558 114.276 107.337C114.164 107.116 114.276 106.895 114.387 106.785C119.07 101.813 123.975 96.5099 128.769 91.3172C136.796 82.5891 145.157 73.64 153.072 65.4642C153.184 65.3537 153.295 65.3538 153.407 65.3538C153.518 65.3538 153.741 65.3537 153.741 65.4642C158.87 70.436 163.887 75.6286 169.126 81.1528C177.265 89.66 185.626 98.3881 194.656 106.343C194.879 106.453 194.879 106.674 194.768 106.895C194.656 107.116 194.433 107.227 194.21 107.227C179.606 107.227 165.782 107.337 152.404 107.448C139.583 107.558 127.208 107.669 114.722 107.669ZM153.407 66.5691C145.491 74.6343 137.353 83.4729 129.438 91.9801C124.978 96.8414 120.296 101.813 115.948 106.564C128.1 106.564 139.917 106.453 152.515 106.343C165.447 106.232 178.826 106.122 192.873 106.122C184.177 98.4986 176.15 89.9914 168.346 81.8157C163.218 76.402 158.424 71.4303 153.407 66.5691Z" fill="#A3AEBB"/>
<path d="M163.892 142.692C157.426 142.692 150.96 142.582 144.494 142.582C143.825 136.063 143.491 129.655 143.602 123.137C150.291 122.805 156.98 122.805 164.115 123.137C164.227 129.545 164.227 135.732 163.892 142.692Z" fill="#B8D4F7"/>
<path d="M163.882 143.244L144.484 143.134C144.261 143.134 143.927 142.913 143.927 142.692C143.146 135.289 142.923 129.102 143.035 123.247C143.035 122.915 143.258 122.694 143.592 122.694C150.281 122.363 156.97 122.363 164.105 122.694C164.44 122.694 164.663 122.915 164.663 123.247C164.774 129.434 164.663 135.621 164.44 142.802C164.44 143.023 164.217 143.244 163.882 143.244ZM145.041 142.029L163.325 142.139C163.548 135.4 163.659 129.544 163.548 123.689C156.747 123.357 150.393 123.357 144.15 123.689C144.15 129.213 144.373 135.068 145.041 142.029Z" fill="#A3AEBB"/>
<path d="M157.085 89.3284C154.856 87.8921 151.511 88.555 149.95 90.7647C148.389 92.9744 149.058 96.3993 151.176 97.9461C153.295 99.4928 156.751 98.9404 158.312 96.8413C159.984 94.6316 159.761 91.0961 157.085 89.3284Z" fill="white"/>
<path d="M154.183 99.3825C153.068 99.3825 151.842 99.0511 150.95 98.3882C148.497 96.6204 147.829 92.9745 149.612 90.4334C151.285 88.0028 154.964 87.2294 157.416 88.8866C158.754 89.7705 159.534 91.0963 159.869 92.6431C160.203 94.1898 159.757 95.9575 158.866 97.1728C157.751 98.6091 155.967 99.3825 154.183 99.3825ZM154.406 89.1076C152.845 89.1076 151.285 89.7705 150.504 91.0963C149.166 93.085 149.724 96.1785 151.619 97.5043C153.514 98.9406 156.636 98.3882 157.974 96.51C158.754 95.5156 158.977 94.1898 158.754 92.864C158.531 91.5382 157.862 90.5439 156.747 89.7705C156.078 89.3286 155.187 89.1076 154.406 89.1076Z" fill="#A3AEBB"/>
<path d="M191.757 164.015C191.422 164.015 191.199 163.794 191.199 163.463C191.422 154.624 191.199 145.896 191.088 138.494C191.088 138.383 191.088 138.162 191.199 138.052C191.311 137.941 191.422 137.941 191.534 137.941C199.003 137.941 206.807 137.941 214.611 137.941C214.723 137.941 214.946 138.052 214.946 138.052C215.057 138.162 215.057 138.273 215.057 138.383C215.057 140.593 215.057 142.802 215.057 144.902C215.057 151.531 215.057 157.718 214.834 163.021C214.834 163.352 214.611 163.573 214.277 163.573C213.942 163.573 213.719 163.352 213.719 163.021C213.942 157.718 213.942 151.531 213.942 144.902C213.942 142.913 213.942 141.035 213.942 138.936C206.584 138.936 199.226 138.936 191.98 138.936C192.091 146.227 192.314 154.735 192.091 163.352C192.314 163.794 192.091 164.015 191.757 164.015Z" fill="#A3AEBB"/>
<path d="M192.206 142.14C192.095 142.14 191.983 142.029 191.983 141.919C191.983 141.808 192.095 141.698 192.206 141.698C199.453 141.366 206.699 141.256 213.946 141.366C214.057 141.366 214.169 141.477 214.169 141.587C214.169 141.698 214.057 141.808 213.946 141.808C206.699 141.587 199.453 141.698 192.206 142.14Z" fill="#A3AEBB"/>
<path d="M196.649 144.901C195.088 144.901 193.527 144.901 191.855 144.901C191.743 144.901 191.632 144.79 191.632 144.68C191.632 144.57 191.743 144.459 191.855 144.459C199.324 144.57 206.905 144.459 214.375 144.017C214.486 144.017 214.598 144.128 214.598 144.238C214.598 144.349 214.486 144.459 214.375 144.459C208.466 144.79 202.557 144.901 196.649 144.901Z" fill="#A3AEBB"/>
<path d="M191.771 148.547C191.659 148.547 191.548 148.437 191.548 148.326C191.548 148.216 191.659 148.105 191.771 148.105C199.352 147.553 207.044 147.442 214.625 147.663C214.737 147.663 214.848 147.774 214.848 147.884C214.848 147.995 214.737 148.105 214.625 148.105C207.044 147.774 199.352 147.995 191.771 148.547Z" fill="#A3AEBB"/>
<path d="M191.99 151.972C191.878 151.972 191.767 151.862 191.767 151.751C191.767 151.641 191.878 151.53 191.99 151.53L214.621 150.867C214.733 150.867 214.844 150.978 214.844 151.088C214.844 151.199 214.733 151.309 214.621 151.309L191.99 151.972Z" fill="#A3AEBB"/>
<path d="M199.575 154.845C197.011 154.845 194.335 154.845 191.771 154.845C191.659 154.845 191.548 154.734 191.548 154.624C191.548 154.513 191.659 154.403 191.771 154.403C199.24 154.403 206.933 154.403 214.402 154.292C214.514 154.292 214.625 154.403 214.625 154.513C214.625 154.624 214.514 154.734 214.402 154.734C209.608 154.734 204.592 154.845 199.575 154.845Z" fill="#A3AEBB"/>
<path d="M191.855 157.717C191.743 157.717 191.632 157.607 191.632 157.496C191.632 157.386 191.743 157.275 191.855 157.275H214.04C214.152 157.275 214.263 157.386 214.263 157.496C214.263 157.607 214.152 157.717 214.04 157.717H191.855Z" fill="#A3AEBB"/>
<path d="M202.24 160.48C198.896 160.48 195.44 160.369 192.095 160.259C191.984 160.259 191.872 160.148 191.872 160.038C191.872 159.927 191.984 159.817 192.095 159.817C199.565 160.038 207.034 160.038 214.504 159.707C214.615 159.707 214.727 159.817 214.727 159.928C214.727 160.038 214.615 160.148 214.504 160.148C210.49 160.369 206.365 160.48 202.24 160.48Z" fill="#A3AEBB"/>
<path d="M144.053 129.544C143.942 129.544 143.83 129.433 143.83 129.323C143.83 129.212 143.942 129.102 144.053 129.102C150.631 128.991 157.32 128.881 164.009 128.771C164.12 128.771 164.232 128.881 164.232 128.991C164.232 129.102 164.12 129.212 164.009 129.212C157.431 129.212 150.742 129.323 144.053 129.544Z" fill="#A3AEBB"/>
<path d="M153.857 142.582C153.745 142.582 153.634 142.471 153.634 142.361L153.968 129.213C153.968 129.103 154.08 128.992 154.191 128.992C154.303 128.992 154.414 129.103 154.414 129.213L154.08 142.361C153.968 142.471 153.968 142.582 153.857 142.582Z" fill="#A3AEBB"/>
<path d="M154.746 99.2717C154.634 99.2717 154.523 99.1613 154.523 99.0508C154.411 95.7363 154.077 92.3113 153.742 88.9968C153.742 88.8864 153.854 88.7759 153.854 88.7759C153.965 88.7759 154.077 88.8864 154.077 88.8864C154.411 92.2008 154.746 95.6258 154.857 99.0508C154.857 99.1613 154.857 99.2717 154.746 99.2717Z" fill="#A3AEBB"/>
<path d="M149.398 93.9688C149.286 93.9688 149.175 93.8584 149.175 93.7479C149.175 93.6374 149.286 93.5269 149.398 93.5269L159.431 92.864C159.543 92.864 159.654 92.9745 159.654 93.085C159.654 93.1955 159.543 93.3059 159.431 93.3059L149.398 93.9688Z" fill="#A3AEBB"/>
<path d="M127.1 120.595C126.989 120.595 126.877 120.484 126.877 120.374L126.543 110.43C126.543 110.32 126.654 110.209 126.766 110.209C126.877 110.209 126.989 110.32 126.989 110.43L127.323 120.374C127.323 120.484 127.212 120.595 127.1 120.595Z" fill="#A3AEBB"/>
<path d="M129.759 114.298C129.648 114.298 129.536 114.187 129.536 114.077L129.313 109.989C129.313 109.878 129.425 109.768 129.536 109.768C129.648 109.768 129.759 109.878 129.759 109.989L129.982 114.077C129.871 114.298 129.871 114.298 129.759 114.298Z" fill="#A3AEBB"/>
<path d="M124.877 159.817C124.542 159.817 124.319 159.596 124.319 159.264C124.319 158.933 124.542 158.712 124.877 158.712L183.072 158.049C183.406 158.049 183.629 158.27 183.629 158.601C183.629 158.933 183.406 159.154 183.072 159.154L124.877 159.817Z" fill="#A3AEBB"/>
<g opacity="0.1294">
<path d="M184.958 108.773C184.847 108.552 184.735 108.331 184.624 108.221C184.624 107.448 184.066 106.674 183.174 106.674C181.168 106.895 179.049 106.674 177.043 106.785C175.036 106.785 172.918 107.006 170.911 107.227C170.465 107.227 170.019 107.227 169.573 107.448C169.016 107.448 168.57 107.448 168.012 107.448C164.668 107.558 161.435 107.448 158.09 107.448C153.073 107.448 148.057 107.558 143.04 107.558C140.141 107.558 137.243 107.337 134.344 107.448C131.111 107.448 127.989 107.89 124.756 107.558C122.638 107.337 122.415 110.541 124.533 110.652C128.212 110.983 131.78 110.541 135.459 110.541C143.151 110.873 150.844 110.652 158.536 110.541C161.769 110.541 165.002 110.652 168.235 110.652C172.695 110.873 177.154 111.093 181.725 110.983C181.948 110.983 182.171 110.983 182.283 110.983C182.394 110.983 182.506 110.983 182.617 110.983C183.063 111.093 183.397 110.983 183.843 110.983C184.624 110.431 185.181 109.547 184.958 108.773Z" fill="#A3AEBB"/>
</g>
<g opacity="0.1294">
<path d="M214.179 138.604C213.844 138.383 213.399 138.383 213.064 138.383C211.838 138.383 210.723 138.383 209.497 138.383C207.155 138.383 204.703 138.273 202.362 138.273C199.351 138.383 196.341 138.383 193.331 138.162C192.662 138.162 191.993 138.052 191.436 138.604C190.544 139.488 191.213 141.145 192.439 141.145C195.784 141.477 199.24 141.366 202.584 141.145C205.818 141.145 209.162 141.366 212.395 141.366C212.841 141.366 213.399 141.477 213.844 141.256C215.182 140.924 215.182 139.157 214.179 138.604Z" fill="#A3AEBB"/>
</g>
<path d="M64.4272 56.8389L63.4766 164.235H120.514L121.227 57.0744L64.4272 56.8389Z" fill="white"/>
<path d="M120.513 164.824H63.4753C63.3565 164.824 63.1189 164.706 63.1189 164.706C63 164.589 63 164.471 63 164.353L63.8318 56.9565C63.8318 56.6032 64.0695 56.3677 64.4259 56.3677L121.226 56.6032C121.344 56.6032 121.582 56.721 121.582 56.721C121.701 56.8387 121.701 56.9565 121.701 57.0742L120.988 164.118C121.107 164.589 120.869 164.824 120.513 164.824ZM64.0695 163.646H119.918L120.631 57.663L65.0201 57.4275L64.0695 163.646Z" fill="#A3AEBB"/>
<path d="M86.1792 91.2245C82.6144 91.2245 78.4555 91.1068 74.8906 90.989C74.8906 87.4563 74.8906 83.5702 74.8906 79.8019C78.5743 79.5664 82.2579 79.5664 86.1792 79.8019C86.4169 83.5702 86.2981 87.2207 86.1792 91.2245Z" fill="#B8D4F7"/>
<path d="M86.1858 91.8133C84.4034 91.8133 82.5022 91.8133 80.6009 91.6955C78.6997 91.6955 76.7984 91.5778 75.016 91.5778C74.6595 91.5778 74.4219 91.3423 74.4219 90.989V90.0469C74.4219 86.7496 74.4219 83.2168 74.4219 79.8018C74.4219 79.4485 74.6595 79.213 75.016 79.213C78.6997 78.9775 82.3833 78.9775 86.4234 79.213C86.7799 79.213 87.0176 79.4485 87.0176 79.8018C87.1364 83.3346 87.0176 86.9851 86.8988 91.2245C86.7799 91.5777 86.5423 91.8133 86.1858 91.8133ZM75.4913 90.5179C77.1549 90.5179 78.8185 90.5179 80.6009 90.6357C82.2645 90.6357 84.0469 90.7534 85.5916 90.7534C85.7105 86.9851 85.7105 83.6879 85.7105 80.5084C82.1457 80.3906 78.8185 80.3906 75.4913 80.5084C75.4913 83.6879 75.4913 86.9851 75.4913 90.1646V90.5179Z" fill="#A3AEBB"/>
<path d="M109.719 91.2248C106.154 91.2248 101.995 91.107 98.4307 90.9893C98.4307 87.4565 98.4307 83.5704 98.4307 79.8021C102.114 79.5666 105.798 79.5666 109.719 79.8021C109.957 83.5704 109.838 87.221 109.719 91.2248Z" fill="#B8D4F7"/>
<path d="M109.718 91.8131C107.936 91.8131 106.034 91.8131 104.133 91.6954C102.232 91.6954 100.331 91.5776 98.5482 91.5776C98.1918 91.5776 97.9541 91.3421 97.9541 90.9889V90.0468C97.9541 86.7495 97.9541 83.2167 97.9541 79.8017C97.9541 79.4484 98.1918 79.2129 98.5482 79.2129C102.232 78.9774 105.916 78.9774 109.956 79.2129C110.312 79.2129 110.55 79.4484 110.55 79.8017C110.669 83.3345 110.55 86.985 110.431 91.2243C110.312 91.5776 110.075 91.8131 109.718 91.8131ZM99.0236 90.5178C100.687 90.5178 102.351 90.5178 104.133 90.6356C105.797 90.6356 107.579 90.7533 109.124 90.7533C109.243 86.985 109.243 83.6878 109.243 80.5083C105.678 80.3905 102.351 80.3905 99.0236 80.5083C99.0236 83.6878 99.0236 86.985 99.0236 90.1645V90.5178Z" fill="#A3AEBB"/>
<path d="M85.8316 115.13C82.2668 115.13 78.1078 115.012 74.543 114.894C74.543 111.362 74.543 107.476 74.543 103.707C78.2266 103.472 81.9103 103.472 85.8316 103.707C86.0693 107.476 86.0693 111.126 85.8316 115.13Z" fill="#B8D4F7"/>
<path d="M85.8303 115.719C84.0479 115.719 82.1466 115.719 80.2454 115.601C78.3441 115.601 76.443 115.483 74.6605 115.483C74.3041 115.483 74.0664 115.248 74.0664 114.894V113.952C74.0664 110.655 74.0664 107.122 74.0664 103.707C74.0664 103.354 74.3041 103.118 74.6605 103.118C78.3442 102.883 82.0278 102.883 86.068 103.118C86.4245 103.118 86.6621 103.354 86.6621 103.707C86.7809 107.24 86.6621 110.89 86.5433 115.13C86.4245 115.483 86.1868 115.719 85.8303 115.719ZM75.2547 114.423C76.9183 114.423 78.5818 114.423 80.3643 114.541C82.0278 114.541 83.8103 114.659 85.355 114.659C85.4739 110.89 85.4738 107.593 85.4738 104.414C81.909 104.296 78.5819 104.296 75.2547 104.414C75.2547 107.593 75.2547 110.89 75.2547 114.07V114.423Z" fill="#A3AEBB"/>
<path d="M109.349 115.13C105.784 115.13 101.625 115.012 98.0605 114.894C98.0605 111.362 98.0605 107.476 98.0605 103.707C101.744 103.472 105.428 103.472 109.349 103.707C109.587 107.476 109.587 111.126 109.349 115.13Z" fill="#B8D4F7"/>
<path d="M109.347 115.719C107.564 115.719 105.663 115.719 103.762 115.601C101.861 115.601 99.9596 115.483 98.1771 115.483C97.8207 115.483 97.583 115.248 97.583 114.894V113.952C97.583 110.655 97.583 107.122 97.583 103.707C97.583 103.354 97.8207 103.118 98.1771 103.118C101.861 102.883 105.544 102.883 109.585 103.118C109.941 103.118 110.179 103.354 110.179 103.707C110.298 107.24 110.179 110.89 110.06 115.13C109.941 115.483 109.703 115.719 109.347 115.719ZM98.7713 114.423C100.435 114.423 102.098 114.423 103.881 114.541C105.544 114.541 107.327 114.659 108.872 114.659C108.99 110.89 108.99 107.593 108.99 104.414C105.426 104.296 102.098 104.296 98.7713 104.414C98.7713 107.593 98.7713 110.89 98.7713 114.07V114.423Z" fill="#A3AEBB"/>
<path d="M85.8316 139.152C82.2668 139.152 78.1078 139.035 74.543 138.917C74.543 135.384 74.543 131.498 74.543 127.73C78.2266 127.494 81.9103 127.494 85.8316 127.73C86.0693 131.38 86.0693 135.031 85.8316 139.152Z" fill="#B8D4F7"/>
<path d="M85.8303 139.741C84.0479 139.741 82.1466 139.741 80.2454 139.623C78.3441 139.623 76.443 139.505 74.6605 139.505C74.3041 139.505 74.0664 139.27 74.0664 138.917V137.975C74.0664 134.677 74.0664 131.145 74.0664 127.73C74.0664 127.376 74.3041 127.141 74.6605 127.141C78.3442 126.905 82.0278 126.905 86.068 127.141C86.4245 127.141 86.6621 127.376 86.6621 127.73C86.7809 131.262 86.6621 134.913 86.5433 139.152C86.4245 139.388 86.1868 139.741 85.8303 139.741ZM75.2547 138.328C76.9183 138.328 78.5818 138.328 80.3643 138.446C82.0278 138.446 83.8103 138.563 85.355 138.563C85.4739 134.795 85.4738 131.498 85.4738 128.318C81.909 128.201 78.5819 128.201 75.2547 128.318C75.2547 131.498 75.2547 134.795 75.2547 137.975V138.328Z" fill="#A3AEBB"/>
<path d="M109.349 139.152C105.784 139.152 101.625 139.035 98.0605 138.917C98.0605 135.384 98.0605 131.498 98.0605 127.73C101.744 127.494 105.428 127.494 109.349 127.73C109.587 131.38 109.587 135.031 109.349 139.152Z" fill="#B8D4F7"/>
<path d="M109.347 139.741C107.564 139.741 105.663 139.741 103.762 139.623C101.861 139.623 99.9596 139.506 98.1771 139.506C97.8207 139.506 97.583 139.27 97.583 138.917V137.975C97.583 134.677 97.583 131.145 97.583 127.73C97.583 127.376 97.8207 127.141 98.1771 127.141C101.861 126.905 105.544 126.905 109.585 127.141C109.941 127.141 110.179 127.376 110.179 127.73C110.298 131.262 110.179 134.913 110.06 139.152C109.941 139.388 109.703 139.741 109.347 139.741ZM98.7713 138.328C100.435 138.328 102.098 138.328 103.881 138.446C105.544 138.446 107.327 138.564 108.872 138.564C108.99 134.795 108.99 131.498 108.99 128.318C105.426 128.201 102.098 128.201 98.7713 128.318C98.7713 131.498 98.7713 134.795 98.7713 137.975V138.328Z" fill="#A3AEBB"/>
<path d="M120.739 63.5512C101.727 62.9624 82.7146 62.8446 64.2963 63.1979C63.9398 63.1979 63.7021 62.9624 63.7021 62.6091C63.7021 62.2558 63.9398 62.0203 64.2963 62.0203C82.7146 61.5493 101.727 61.667 120.739 62.3736C121.096 62.3736 121.334 62.6091 121.334 62.9624C121.334 63.3156 121.096 63.5512 120.739 63.5512Z" fill="#A3AEBB"/>
<path d="M85.8316 83.9244L75.1371 83.8066C75.0183 83.8066 74.8994 83.6888 74.8994 83.5711C74.8994 83.4533 75.0183 83.3356 75.1371 83.3356L85.8316 83.4533C85.9504 83.4533 86.0692 83.5711 86.0692 83.6889C86.0692 83.8066 85.9504 83.9244 85.8316 83.9244Z" fill="#A3AEBB"/>
<path d="M109.717 83.9241C107.103 83.8064 104.132 83.8064 101.161 83.8064C100.21 83.8064 99.3787 83.8064 98.4281 83.8064C98.3093 83.8064 98.1904 83.6886 98.1904 83.5708C98.1904 83.4531 98.3093 83.3353 98.4281 83.3353C99.2599 83.3353 100.21 83.3353 101.161 83.3353C104.132 83.3353 107.221 83.3353 109.836 83.4531C109.954 83.4531 110.073 83.5708 110.073 83.6886C109.954 83.8064 109.836 83.9241 109.717 83.9241Z" fill="#A3AEBB"/>
<path d="M85.5939 107.358C84.0491 107.358 82.2667 107.358 80.4843 107.358C78.7019 107.358 76.8007 107.358 75.1371 107.358C75.0183 107.358 74.8994 107.24 74.8994 107.122C74.8994 107.004 75.0183 107.004 75.1371 106.887C76.8007 107.004 78.5831 106.887 80.4843 106.887C82.2667 106.887 84.168 106.887 85.7128 106.887C85.8316 106.887 85.9504 107.004 85.9504 107.122C85.7128 107.358 85.7127 107.358 85.5939 107.358Z" fill="#A3AEBB"/>
<path d="M109.368 107.357C106.873 107.239 102.833 107.239 98.5551 107.239C98.4362 107.239 98.3174 107.122 98.3174 107.004C98.3174 106.886 98.4362 106.768 98.5551 106.768C102.952 106.768 106.873 106.768 109.368 106.886C109.487 106.886 109.606 107.004 109.606 107.122C109.487 107.239 109.368 107.357 109.368 107.357Z" fill="#A3AEBB"/>
<path d="M80.7201 131.145C78.7 131.145 76.6799 131.145 74.7787 131.027C74.6599 131.027 74.541 130.91 74.541 130.792C74.541 130.674 74.6599 130.674 74.7787 130.556C77.5117 130.674 80.3636 130.674 83.0966 130.674C83.9284 130.674 84.6414 130.674 85.4732 130.674C85.592 130.674 85.7108 130.792 85.7108 130.91C85.7108 131.027 85.592 131.145 85.4732 131.145C84.6414 131.145 83.9284 131.145 83.0966 131.145C82.2648 131.145 81.433 131.145 80.7201 131.145Z" fill="#A3AEBB"/>
<path d="M98.4281 131.027C98.3093 131.027 98.1904 130.909 98.1904 130.792C98.1904 130.674 98.3093 130.556 98.4281 130.556C101.993 130.438 105.677 130.438 109.36 130.438C109.479 130.438 109.598 130.556 109.598 130.674C109.598 130.792 109.479 130.91 109.36 130.91C105.677 130.91 101.993 130.91 98.4281 131.027Z" fill="#A3AEBB"/>
<path d="M67.6293 73.4427C67.5104 73.4427 67.3916 73.325 67.3916 73.2072V65.3173C67.3916 65.1995 67.5104 65.0818 67.6293 65.0818C67.7481 65.0818 67.8669 65.1995 67.8669 65.3173V73.2072C67.8669 73.325 67.7481 73.4427 67.6293 73.4427Z" fill="#A3AEBB"/>
<path d="M70.4933 68.968C70.3744 68.968 70.2556 68.8502 70.2556 68.7325L70.1367 65.3174C70.1367 65.1997 70.2556 65.0819 70.3744 65.0819C70.4932 65.0819 70.6121 65.1997 70.6121 65.3174L70.7309 68.6147C70.612 68.8502 70.6121 68.968 70.4933 68.968Z" fill="#A3AEBB"/>
<path d="M117.668 75.4447C117.549 75.4447 117.431 75.327 117.431 75.2092C117.668 72.0297 117.787 68.8502 117.787 65.6707C117.787 65.5529 117.906 65.4352 118.025 65.4352C118.144 65.4352 118.262 65.5529 118.262 65.6707C118.262 68.8502 118.144 72.0297 117.906 75.2092C117.906 75.327 117.787 75.4447 117.668 75.4447Z" fill="#A3AEBB"/>
<path d="M115.162 69.7926C115.043 69.7926 114.924 69.6748 114.924 69.5571L114.806 66.2598C114.806 66.142 114.925 66.0243 115.043 66.0243C115.162 66.0243 115.281 66.142 115.281 66.2598L115.4 69.5571C115.4 69.6748 115.281 69.7926 115.162 69.7926Z" fill="#A3AEBB"/>
<path d="M73.8191 67.5544C73.7003 67.5544 73.5814 67.4366 73.5814 67.4366L73.3438 65.4347C73.3438 65.317 73.4626 65.1992 73.4626 65.1992C73.5814 65.1992 73.7002 65.317 73.7002 65.317L73.9379 67.3189C74.0567 67.4367 73.9379 67.5544 73.8191 67.5544Z" fill="#A3AEBB"/>
<g opacity="0.1294">
<path d="M120.051 62.845C119.576 62.845 119.219 62.845 118.744 62.845C117.199 62.845 115.536 62.845 113.991 62.7272C110.07 62.4917 101.514 62.2562 95.929 62.4917C91.6512 62.2562 87.3734 62.2562 83.0956 62.1384C79.6496 62.1384 76.2036 62.2562 72.7576 62.2562C70.2623 62.2562 67.7669 62.2562 65.3903 62.4917C63.2514 62.4917 63.2514 65.9067 65.3903 66.0245C68.5987 65.5535 71.807 65.6712 75.0154 65.6712C80.3626 65.6712 85.591 65.6712 90.9382 65.789C96.5231 66.0245 102.108 66.0245 107.693 66.0245C109.238 66.0245 110.782 66.26 112.327 66.1423C114.228 66.1423 113.991 66.1423 115.654 66.1423C117.08 66.26 118.506 66.26 119.813 66.1423C119.695 66.1423 119.576 66.1422 119.457 66.26C120.526 66.3778 121.596 65.9067 121.596 64.6114C121.596 63.6693 120.883 62.845 120.051 62.845Z" fill="#A3AEBB"/>
</g>
<path d="M121.73 145.296C119.245 147.422 117.663 146.975 114.839 145.184C112.015 143.393 110.66 139.811 111.903 136.9C105.803 138.243 99.7032 133.318 98.1219 127.833C96.9923 123.915 98.3477 118.766 102.753 117.87C99.0255 114.848 98.2348 109.139 101.172 105.445C104.109 101.751 110.208 100.631 114.613 102.87C113.936 98.0566 116.082 93.1311 120.148 90.1087C121.617 88.9893 123.424 88.0938 125.344 87.9818C129.298 87.8699 132.687 91.2281 133.477 94.8103C134.268 98.3924 133.251 101.974 132.122 105.557C134.72 103.542 139.351 104.437 141.158 107.124C142.966 109.81 142.175 113.616 139.577 115.743C143.643 117.87 146.128 122.124 145.902 126.266C145.676 130.407 142.74 134.325 138.447 136.004C137.318 136.452 135.849 136.9 135.51 138.019C135.284 138.691 136.414 143.616 129.637 146.975C127.491 148.094 124.554 147.199 121.73 145.296Z" fill="white"/>
<path d="M127.597 148.094C125.564 148.094 123.418 147.087 121.724 146.079C119.239 148.094 117.431 147.534 114.494 145.743C111.67 144.064 110.315 140.706 110.993 137.684C110.541 137.684 110.202 137.796 109.75 137.796C104.102 137.796 98.9064 133.094 97.551 128.057C96.7603 125.482 97.0991 122.46 98.4546 120.333C99.2453 119.101 100.262 118.094 101.617 117.646C98.3416 114.288 97.7769 108.803 100.714 105.221C103.538 101.639 109.411 100.295 113.93 102.086C113.591 97.4968 115.85 92.6834 119.69 89.7729C121.498 88.4296 123.418 87.646 125.225 87.5341C129.631 87.4222 133.132 91.1162 133.923 94.8103C134.714 98.0565 133.923 101.415 133.019 104.437C134.149 103.989 135.391 103.877 136.747 103.989C138.78 104.325 140.587 105.333 141.604 106.788C143.411 109.475 142.959 113.169 140.474 115.519C144.315 117.87 146.687 122.012 146.461 126.266C146.235 130.631 143.072 134.773 138.667 136.564L138.328 136.676C137.312 137.012 136.295 137.46 136.069 138.243C136.069 138.243 136.069 138.467 136.069 138.579C136.069 140.146 136.069 144.512 129.969 147.422C129.179 147.87 128.388 148.094 127.597 148.094ZM121.724 144.736C121.837 144.736 121.95 144.736 122.062 144.848C125.112 146.751 127.71 147.422 129.518 146.527C135.052 143.84 135.052 140.034 135.052 138.579C135.052 138.243 135.052 138.019 135.165 137.908C135.617 136.676 136.86 136.116 138.102 135.669L138.441 135.557C142.508 133.99 145.331 130.184 145.557 126.266C145.783 122.236 143.298 118.206 139.458 116.191C139.345 116.079 139.232 115.967 139.119 115.743C139.119 115.519 139.232 115.407 139.345 115.295C141.83 113.28 142.508 109.81 140.813 107.46C140.023 106.228 138.441 105.333 136.747 105.109C135.165 104.885 133.584 105.221 132.567 106.004C132.342 106.116 132.116 106.116 131.89 106.004C131.664 105.892 131.551 105.669 131.664 105.445C132.68 102.198 133.81 98.5043 133.019 95.0342C132.342 91.7879 129.405 88.6535 125.677 88.6535C125.564 88.6535 125.564 88.6535 125.451 88.6535C123.87 88.7654 122.175 89.3251 120.481 90.6684C116.641 93.5789 114.494 98.3924 115.172 102.982C115.172 103.206 115.059 103.43 114.946 103.542C114.72 103.654 114.607 103.654 114.381 103.542C110.202 101.415 104.441 102.422 101.617 105.892C98.9064 109.363 99.5842 114.624 103.086 117.534C103.199 117.646 103.312 117.87 103.312 118.094C103.312 118.318 103.086 118.43 102.86 118.542C101.391 118.878 100.262 119.661 99.4712 121.004C98.3417 122.907 98.0028 125.482 98.6805 127.833C100.149 132.982 105.91 137.796 111.783 136.564C112.009 136.564 112.235 136.564 112.348 136.788C112.461 136.9 112.461 137.124 112.461 137.348C111.332 140.034 112.574 143.281 115.172 144.96C117.996 146.751 119.239 146.975 121.385 145.072C121.498 144.848 121.611 144.736 121.724 144.736Z" fill="#A3AEBB"/>
<path d="M121.61 162.87C121.271 162.87 121.045 162.647 121.045 162.311C120.706 143.617 120.368 124.251 122.74 105.333C122.74 104.997 123.078 104.773 123.304 104.885C123.643 104.885 123.869 105.221 123.756 105.445C121.384 124.251 121.723 143.617 122.062 162.311C122.175 162.647 121.949 162.87 121.61 162.87Z" fill="#A3AEBB"/>
<path d="M122.504 115.855C122.391 115.855 122.278 115.855 122.165 115.743C121.939 115.631 121.826 115.295 121.939 114.96C123.181 113.057 124.537 111.265 126.118 109.698C126.344 109.474 126.683 109.474 126.909 109.698C127.135 109.922 127.135 110.258 126.909 110.482C125.328 112.049 123.972 113.728 122.843 115.631C122.843 115.743 122.617 115.855 122.504 115.855Z" fill="#A3AEBB"/>
<path d="M121.497 132.199C121.271 132.199 121.045 132.087 120.932 131.863C118.447 125.818 115.962 120.221 111.331 115.295C111.105 115.072 111.105 114.736 111.331 114.512C111.556 114.288 111.895 114.288 112.121 114.512C116.978 119.661 119.35 125.37 121.948 131.415C122.061 131.639 121.948 131.975 121.61 132.087C121.61 132.199 121.497 132.199 121.497 132.199Z" fill="#A3AEBB"/>
<path d="M117.094 122.908C116.982 122.908 116.869 122.908 116.869 122.796C114.835 121.676 112.576 120.893 110.317 120.669C109.978 120.669 109.752 120.333 109.865 120.109C109.865 119.773 110.204 119.549 110.43 119.661C112.915 119.885 115.287 120.781 117.433 122.012C117.659 122.124 117.772 122.46 117.659 122.796C117.433 122.796 117.32 122.908 117.094 122.908Z" fill="#A3AEBB"/>
<path d="M121.725 140.707C121.612 140.707 121.612 140.707 121.499 140.707C121.273 140.595 121.047 140.259 121.16 140.035C123.984 133.543 128.276 127.722 133.585 123.02C133.811 122.796 134.15 122.796 134.376 123.02C134.602 123.244 134.602 123.58 134.376 123.804C129.18 128.393 125 134.102 122.289 140.371C122.177 140.483 121.951 140.707 121.725 140.707Z" fill="#A3AEBB"/>
<path d="M103.436 113.953C103.324 113.953 103.323 113.953 103.323 113.841C102.081 111.938 102.081 109.363 103.323 107.46C103.323 107.348 103.436 107.348 103.549 107.348C103.662 107.348 103.662 107.46 103.662 107.572C102.533 109.363 102.533 111.826 103.662 113.617C103.662 113.841 103.549 113.953 103.436 113.953Z" fill="#A3AEBB"/>
<path d="M105.68 113.393C105.567 113.393 105.567 113.393 105.454 113.281C105.116 112.273 104.89 111.154 104.89 110.146C104.89 110.034 105.003 109.922 105.116 109.922C105.229 109.922 105.342 110.034 105.342 110.146C105.342 111.154 105.567 112.273 105.906 113.281C105.906 113.169 105.906 113.281 105.68 113.393C105.793 113.393 105.793 113.393 105.68 113.393Z" fill="#A3AEBB"/>
<path d="M136.964 113.616C136.851 113.616 136.851 113.616 136.851 113.504C136.851 113.393 136.851 113.281 136.964 113.281C137.528 113.057 138.093 112.385 138.319 111.601C138.545 110.818 138.658 110.034 138.658 109.251C138.658 109.139 138.771 109.027 138.884 109.027C138.997 109.027 139.11 109.139 139.11 109.251C139.11 110.034 138.997 110.818 138.771 111.601C138.319 112.609 137.641 113.281 136.964 113.616Z" fill="#A3AEBB"/>
<g opacity="0.1294">
<path d="M135.493 137.459C135.041 136.676 133.911 136.9 133.686 137.683C133.46 139.139 133.234 140.034 132.782 140.93C131.765 142.497 130.975 143.616 130.184 144.064C129.393 144.512 129.845 144.288 128.941 144.512C128.828 144.512 128.828 144.512 128.715 144.512C127.699 144.624 126.682 144.736 125.666 144.624C125.553 144.624 125.553 144.624 125.44 144.624C124.762 144.512 124.084 144.4 123.407 144.064C123.407 144.064 123.407 144.064 123.294 144.064C122.842 143.84 122.39 143.504 121.825 143.392C121.034 143.28 119.905 143.392 119.566 144.176C119.453 144.064 119.34 144.064 119.227 143.952C118.324 143.504 118.775 143.952 117.759 143.504C116.403 142.833 115.951 142.497 115.161 141.937C113.805 140.594 113.579 139.922 113.466 138.691C113.353 137.907 113.579 137.124 113.353 136.34C113.015 135.444 111.998 135.221 111.32 135.668C111.094 135.444 110.868 135.221 110.53 135.109C110.53 135.109 110.53 135.109 110.417 135.109C109.626 134.997 108.835 135.109 108.044 134.997C107.367 134.997 106.124 134.773 105.559 134.437C104.091 133.653 103.074 132.87 102.961 132.646C102.171 131.974 101.38 131.415 100.702 130.519C100.363 130.071 99.9116 129.512 99.3468 129.512C98.4432 129.512 97.9914 130.631 98.6691 131.191C99.2339 131.75 99.2339 131.862 99.9116 132.758C100.476 133.43 101.154 134.101 101.719 134.661C102.736 135.444 103.752 136.34 104.995 136.9C105.785 137.347 106.802 137.459 107.706 137.571C108.157 137.683 108.609 137.571 109.061 137.683C109.626 137.795 110.191 137.795 110.642 137.683C110.642 140.818 111.659 143.056 114.483 144.959C115.613 145.743 118.436 147.422 119.566 146.191C119.792 145.967 119.905 145.743 119.905 145.519C120.244 145.743 120.696 145.967 121.147 145.743C121.26 145.743 121.26 145.631 121.373 145.631C121.599 145.743 122.164 146.079 122.39 146.191C124.197 147.086 126.23 147.198 128.038 146.75C129.393 146.527 130.636 146.303 131.652 145.407C132.33 144.848 132.782 144.176 133.347 143.504C134.024 142.609 134.589 141.489 134.928 140.37C135.154 139.81 135.154 139.139 135.267 138.579C135.606 138.355 135.719 137.907 135.493 137.459Z" fill="#A3AEBB"/>
</g>
<path d="M268.91 31.8244C282.7 31.9295 296.49 32.0345 310.386 32.1396C311.765 32.1396 313.25 32.1396 314.523 31.7193C324.601 28.2522 320.676 20.2674 320.039 18.6915C318.979 16.0649 315.372 15.2244 312.72 16.17C310.068 17.1156 308.053 19.3219 306.249 21.4231C306.992 16.6953 304.658 11.4421 300.415 9.13075C296.172 6.81936 290.232 7.65987 287.156 11.3371C284.716 14.1738 284.185 18.1662 283.761 21.8434C282.7 19.1118 281.321 16.3801 278.882 14.6991C276.442 13.0181 272.835 12.7029 270.714 14.6991C268.274 16.9054 268.592 20.6877 269.016 23.8396C267.743 21.8434 264.561 21.6333 262.864 23.2092C261.167 24.7852 260.955 27.6219 262.227 29.6181C263.394 31.7193 265.728 31.8244 268.91 31.8244Z" fill="white"/>
<path d="M310.809 32.6649C310.703 32.6649 310.491 32.6649 310.385 32.6649L268.908 32.3498C265.938 32.3498 263.074 32.3497 261.695 30.0383C260.21 27.832 260.634 24.6801 262.438 22.9991C263.392 22.1586 264.878 21.7384 266.257 21.8434C266.999 21.9485 267.636 22.1586 268.272 22.5789C267.954 19.427 268.166 16.3801 270.287 14.3839C272.833 12.0726 276.652 12.7029 279.092 14.3839C281.107 15.8548 282.486 17.9561 283.441 19.9523C283.865 16.9055 284.608 13.6485 286.729 11.127C289.912 7.23967 296.064 6.18904 300.625 8.81562C304.55 11.0219 306.99 15.4346 306.884 20.0574C308.369 18.3764 310.278 16.5903 312.612 15.7498C315.476 14.6991 319.401 15.6447 320.568 18.4814L320.674 18.6915C321.204 20.0574 322.796 23.6295 321.204 27.0966C320.144 29.3029 318.022 31.089 314.734 32.1396C313.461 32.5599 312.188 32.6649 310.809 32.6649ZM265.62 22.8941C264.665 22.8941 263.817 23.2093 263.074 23.8396C261.589 25.2055 261.271 27.727 262.438 29.6181C263.499 31.2991 265.62 31.4042 268.802 31.5093L310.278 31.8244C311.657 31.8244 313.036 31.8244 314.309 31.4042C317.28 30.3536 319.295 28.8827 320.144 26.8865C321.523 23.9447 320.038 20.5827 319.507 19.3219L319.401 19.1118C318.446 16.8004 315.158 16.065 312.718 16.9055C310.066 17.851 308.157 20.0574 306.46 22.0536C306.354 22.2637 306.035 22.2637 305.823 22.1586C305.611 22.0536 305.505 21.8434 305.505 21.6333C306.141 17.0105 303.808 12.0726 299.883 9.86625C295.746 7.55486 290.124 8.50043 287.26 11.9675C284.82 14.8042 284.396 18.9017 283.971 22.2637C283.971 22.4738 283.759 22.6839 283.547 22.6839C283.335 22.6839 283.123 22.5789 283.017 22.3688C282.168 20.2675 280.789 17.2207 278.349 15.4346C276.228 13.9637 272.833 13.5434 270.818 15.4346C268.696 17.4308 268.802 20.7928 269.333 24.1548C269.333 24.365 269.227 24.5751 269.015 24.6801C268.802 24.7852 268.484 24.6801 268.378 24.47C267.848 23.7346 266.999 23.2093 266.044 23.1042C265.938 22.8941 265.832 22.8941 265.62 22.8941Z" fill="#D1D6DD"/>
<path d="M132.768 58.5271C146.558 58.6322 160.348 58.7373 174.244 58.8423C175.623 58.8423 177.108 58.8423 178.381 58.4221C188.458 54.955 184.533 46.9702 183.897 45.3943C182.836 42.7677 179.229 41.9272 176.577 42.8727C173.926 43.8183 171.91 46.0246 170.107 48.1259C170.849 43.3981 168.516 38.1449 164.273 35.8335C160.029 33.5221 154.089 34.3626 151.013 38.0398C148.573 40.8765 148.043 44.8689 147.619 48.5462C146.558 45.8145 145.179 43.0829 142.739 41.4019C140.299 39.7208 136.693 39.4057 134.571 41.4019C132.131 43.6082 132.45 47.3905 132.874 50.5423C131.601 48.5461 128.419 48.336 126.721 49.912C125.024 51.4879 124.812 54.3246 126.085 56.3208C127.252 58.4221 129.585 58.5271 132.768 58.5271Z" fill="white"/>
<path d="M174.666 59.3677C174.56 59.3677 174.348 59.3677 174.242 59.3677L132.766 59.0525C129.796 59.0525 126.932 59.0525 125.553 56.7411C124.068 54.5348 124.492 51.3829 126.295 49.7019C127.25 48.8614 128.735 48.4411 130.114 48.5462C130.857 48.6513 131.493 48.8614 132.129 49.2816C131.811 46.1297 132.023 43.0829 134.145 41.0867C136.691 38.7753 140.509 39.4057 142.949 41.0867C144.965 42.5576 146.344 44.6589 147.298 46.6551C147.723 43.6082 148.465 40.3513 150.587 37.8298C153.769 33.9424 159.922 32.8918 164.483 35.5184C168.408 37.7247 170.847 42.1373 170.741 46.7601C172.226 45.0791 174.136 43.293 176.47 42.4525C179.334 41.4019 183.258 42.3475 184.425 45.1842L184.531 45.3943C185.062 46.7601 186.653 50.3323 185.062 53.7994C184.001 56.0057 181.879 57.7917 178.591 58.8424C177.318 59.2626 176.045 59.3677 174.666 59.3677ZM129.478 49.5968C128.523 49.5968 127.674 49.912 126.932 50.5424C125.447 51.9082 125.128 54.4297 126.295 56.3209C127.356 58.0019 129.478 58.107 132.66 58.212L174.136 58.5272C175.515 58.5272 176.894 58.5272 178.167 58.1069C181.137 57.0563 183.152 55.5854 184.001 53.5892C185.38 50.6474 183.895 47.2854 183.365 46.0247L183.258 45.8145C182.304 43.5032 179.015 42.7677 176.576 43.6082C173.924 44.5538 172.014 46.7601 170.317 48.7563C170.211 48.9664 169.893 48.9665 169.681 48.8614C169.468 48.7563 169.362 48.5462 169.362 48.3361C169.999 43.7133 167.665 38.7753 163.74 36.569C159.603 34.2576 153.981 35.2032 151.117 38.6703C148.677 41.507 148.253 45.6044 147.829 48.9664C147.829 49.1766 147.617 49.3867 147.405 49.3867C147.192 49.3867 146.98 49.2816 146.874 49.0715C146.026 46.9703 144.646 43.9234 142.207 42.1373C140.085 40.6665 136.691 40.2462 134.675 42.1373C132.554 44.1335 132.66 47.4956 133.19 50.8576C133.19 51.0677 133.084 51.2778 132.872 51.3829C132.66 51.488 132.342 51.3829 132.236 51.1728C131.705 50.4373 130.857 49.912 129.902 49.807C129.796 49.5968 129.69 49.5968 129.478 49.5968Z" fill="#D1D6DD"/>
<g opacity="0.1294">
<path d="M318.76 27.412C318.336 27.412 318.018 27.7272 317.699 27.8323C317.275 28.1475 316.745 28.3576 316.214 28.5677H316.108C313.669 29.5133 310.486 29.1981 306.561 29.093C300.409 28.7778 294.044 28.2525 287.892 28.5677C283.755 28.8829 279.618 28.8829 275.481 28.7778C272.405 28.8829 269.222 29.093 266.146 28.8829C264.661 28.6728 264.767 28.7778 264.131 28.2525C263.706 27.8323 263.812 27.9373 263.706 27.7272C263.6 27.5171 263.282 27.307 262.964 27.2019C262.009 26.8867 261.16 28.0424 261.691 28.8829C262.115 29.6184 262.646 30.2487 263.388 30.669C264.025 31.0892 264.767 31.1943 265.616 31.2994C268.586 32.0348 271.45 31.9297 275.163 31.7196C278.345 31.7196 281.527 31.7196 284.71 31.5095C284.816 31.7196 285.134 31.8247 285.452 31.8247C286.937 32.0348 288.422 31.9297 289.907 31.9297C292.559 31.9297 295.211 31.7196 297.969 31.8247C300.621 31.7196 303.273 32.2449 305.925 32.1399C306.349 32.1399 306.774 31.8247 306.88 31.4044C309.213 31.4044 311.441 31.7196 313.775 31.4044C315.472 31.1943 317.063 30.669 318.548 29.9336C319.078 29.6184 319.715 29.4082 319.821 28.7778C320.033 28.1475 319.503 27.412 318.76 27.412Z" fill="#D1D6DD"/>
</g>
</svg>
