<svg width="688" height="834" viewBox="0 0 688 834" fill="none" xmlns="http://www.w3.org/2000/svg">
<path d="M656.284 423.564L620.039 343.553L592.601 282.85L559.675 210.089C546.532 181.025 516.316 163.613 484.542 166.73L405.073 174.589L338.748 181.16L251.285 189.764C199.931 194.913 153.863 224.587 128.051 269.301L9.28777 474.985C-8.93652 506.555 1.90322 547.069 33.4739 565.293L40.5875 569.426C62.6057 582.162 86.9951 586.905 110.571 584.601C147.427 581.214 182.114 560.618 201.964 526.135L268.831 410.285C278.655 393.28 296.202 382.373 315.781 381.153L400.941 375.666C409.07 375.124 416.658 379.527 420.317 386.844L458.12 463.332C466.86 480.946 466.182 501.61 456.359 518.615L389.491 634.464C369.641 668.88 369.099 709.258 384.546 742.861C394.301 764.405 410.696 783.172 432.715 795.908L439.828 800.041C471.399 818.265 511.912 807.425 530.137 775.855L648.899 570.171C674.711 525.457 677.421 470.784 656.148 423.699L656.284 423.564ZM483.39 748.62C480.071 754.379 472.754 756.343 467.063 753.024L459.949 748.891C429.395 731.209 418.894 692.05 436.508 661.428L503.376 545.578C522.278 512.856 523.565 473.088 506.763 439.214L504.663 435.013L469.028 362.726C462.321 349.176 452.023 338.472 439.557 331.29C427.091 324.109 412.661 320.519 397.553 321.467L317.136 326.751L312.461 327.022C274.726 329.394 240.987 350.396 222.085 383.118L155.218 498.967C137.535 529.522 98.3768 540.023 67.7545 522.408L60.641 518.276C54.8824 514.956 52.9177 507.639 56.2374 501.948L175 296.265C192.14 266.591 222.627 246.944 256.637 243.624L305.415 238.814L357.378 233.665L371.741 232.242L489.894 220.522C498.498 219.641 506.763 224.384 510.286 232.31L559.201 340.504L568.414 360.896L586.639 401.207L606.828 445.853C620.919 477.017 619.158 513.262 602.085 542.936L483.323 748.62H483.39Z" fill="#006FFD"/>
<path d="M657.435 278.852L620.106 343.551L592.668 282.849L610.621 251.82C611.638 250.059 612.654 248.162 613.602 246.4C635.485 205.074 638.94 156.634 623.019 112.462L606.489 66.5963C603.44 57.9245 594.565 52.8434 585.554 54.5371L537.589 63.1412C491.384 71.4065 451.21 98.6413 426.278 138.206C425.194 139.968 424.11 141.729 423.094 143.491L405.141 174.519L338.815 181.091L376.145 116.391C408.596 60.1602 464.014 21.2727 527.968 9.75552L575.934 1.15149C611.028 -5.1491 645.308 14.6334 657.435 48.1688L673.966 94.0344C695.984 155.143 690.022 222.553 657.503 278.784L657.435 278.852Z" fill="#006FFD"/>
<path d="M586.774 401.272L503.443 545.644C522.345 512.921 523.632 473.153 506.831 439.279L504.731 435.079L559.336 340.502L568.55 360.894L586.774 401.204V401.272Z" fill="#006FFD"/>
<path d="M371.741 232.24L317.136 326.817L312.461 327.088C274.725 329.459 240.987 350.461 222.085 383.183L305.415 238.812L357.378 233.663L371.741 232.24Z" fill="#006FFD"/>
<path d="M359.072 767.723C330.279 791.367 295.592 807.627 257.992 814.402L149.391 833.913L111.994 730.123C99.0544 694.149 95.8025 656.006 101.9 619.287C122.021 619.016 141.939 614.68 160.367 606.686C149.933 640.763 150.611 677.55 163.009 711.763L184.891 772.533L248.439 761.084C284.21 754.648 316.459 736.898 340.713 710.815C343.016 730.733 349.181 750.176 359.072 767.723Z" fill="#006FFD"/>
</svg>
